<svg width="85" height="74" viewBox="0 0 85 74" fill="none" xmlns="http://www.w3.org/2000/svg">
<g clip-path="url(#clip0)">
<path d="M4.14071 70.7613L1.71214 63.0519C1.50361 61.8213 0.902142 60.6939 0 59.8427L0 59.7812H3.01143C2.98647 60.2931 3.06925 60.8044 3.25428 61.2813L6.32643 70.9949L8.755 63.0519C9.14357 61.8223 9.55643 60.4206 8.42714 59.8304V59.7812H11.3414C11.2594 60.5009 11.364 61.2298 11.645 61.8961L14.5107 70.9334L16.83 63.2978C17.2064 62.0682 17.8864 60.4083 16.2836 59.855V59.7812H19.4286L15.0936 74.1426C13.1993 72.8269 13.0536 72.913 12.3736 70.7858L10.1029 63.5929L6.885 74.1426C5.015 72.7654 4.85714 72.913 4.14071 70.7613Z" fill="#0C0D0D"/>
<path d="M23.2659 59.437V64.9577C23.6481 64.5295 24.1173 64.1901 24.6414 63.963C25.1654 63.7359 25.7318 63.6264 26.3016 63.6421C29.1552 63.6421 29.8352 65.3758 29.8352 67.4046V71.2039C29.8352 72.163 29.7016 72.9376 30.6124 73.454V73.5155H27.2488V73.454C28.1474 72.9253 28.0138 72.2244 28.0138 71.2039V68.0316C28.0138 66.3348 27.4795 65.0192 25.6945 65.0192C23.9095 65.0192 23.2659 66.0397 23.2659 67.9087V71.2039C23.2659 72.163 23.1445 72.9376 24.0552 73.454V73.5155H20.6431V73.454C21.5538 72.9253 21.4324 72.2244 21.4324 71.2039V62.0929C21.4324 61.1338 21.5538 60.3592 20.6431 59.8428V59.7813H21.9909C22.2154 59.8188 22.4452 59.8075 22.665 59.7482C22.8849 59.6888 23.0897 59.5827 23.2659 59.437Z" fill="#0C0D0D"/>
<path d="M32.5306 61.2814C32.5494 60.94 32.7 60.6197 32.9499 60.3897C33.1997 60.1597 33.5288 60.0384 33.8663 60.0518C34.031 60.0516 34.194 60.0853 34.3454 60.1509C34.4968 60.2165 34.6335 60.3126 34.7471 60.4334C34.8607 60.5541 34.9488 60.697 35.0061 60.8534C35.0635 61.0097 35.0888 61.1763 35.0806 61.3428C35.0873 61.6791 34.9641 62.0047 34.7373 62.2504C34.5105 62.4961 34.198 62.6425 33.8663 62.6585C33.6883 62.6602 33.5119 62.6256 33.3474 62.5566C33.183 62.4877 33.034 62.386 32.9093 62.2574C32.7846 62.1288 32.6868 61.9762 32.6217 61.8084C32.5567 61.6407 32.5257 61.4615 32.5306 61.2814ZM34.8256 63.5806V71.2039C34.8256 72.163 34.7041 72.9376 35.6148 73.454V73.5155H32.2148V73.454C33.1256 72.9253 33.0041 72.2244 33.0041 71.2039V66.2119C33.0041 65.2528 33.1256 64.5028 32.2148 63.9741H33.4291C33.9226 64.0197 34.4154 63.8796 34.8134 63.5806H34.8256Z" fill="#0C0D0D"/>
<path d="M41.9899 72.4209C42.2752 72.401 42.5547 72.3303 42.8156 72.2119L41.7228 73.6874C41.511 73.7577 41.2899 73.795 41.0671 73.798C37.8735 73.798 38.1649 70.4537 38.1649 69.6421V65.2895H36.7563V64.5395C38.6992 64.2075 39.1849 62.7443 39.1849 60.8508H40.0713V63.937H42.0142C42.2793 63.9615 42.5463 63.9193 42.7914 63.8141H42.8521V65.7199H42.7549C42.5582 65.5401 42.3237 65.4079 42.0692 65.3334C41.8147 65.2588 41.5467 65.2438 41.2856 65.2895H40.0713V69.47C40.0713 70.2692 39.7799 72.4209 41.9899 72.4209Z" fill="#0C0D0D"/>
<path d="M48.7169 65.0192C48.0904 64.986 47.4735 65.1867 46.9834 65.5833C46.4932 65.9799 46.1638 66.5448 46.0576 67.1709H51.3884C51.3122 66.5285 50.989 65.9424 50.489 65.5397C49.9889 65.1369 49.3522 64.9499 48.7169 65.0192ZM50.1012 72.3965C51.2976 72.4162 52.467 72.0359 53.4284 71.3145L52.3962 73.2818C51.4885 73.6459 50.5189 73.8255 49.5426 73.8105C46.1426 73.7737 43.7141 71.5605 43.7141 68.6464C43.6993 67.9656 43.8243 67.2891 44.0812 66.6598C44.338 66.0304 44.7212 65.462 45.2063 64.9904C45.6914 64.5188 46.268 64.1544 46.8995 63.9202C47.531 63.686 48.2036 63.5871 48.8748 63.6298C49.496 63.5994 50.1167 63.7017 50.6963 63.9301C51.276 64.1586 51.8016 64.508 52.2391 64.9556C52.6767 65.4033 53.0162 65.9392 53.2357 66.5284C53.4553 67.1177 53.5499 67.7472 53.5134 68.3759H45.9726C45.9526 68.9242 46.0467 69.4706 46.2489 69.9797C46.4511 70.4888 46.7568 70.949 47.1462 71.3306C47.5356 71.7121 48 72.0064 48.5091 72.1943C49.0182 72.3822 49.5607 72.4595 50.1012 72.4211V72.3965Z" fill="#0C0D0D"/>
<path d="M56.2215 63.6421H56.2822C56.3151 64.0146 56.4052 64.3797 56.5494 64.7241L58.978 71.0686L60.8601 66.1504C61.1515 65.4004 61.6615 64.3921 60.678 63.9618H63.3737V64.2815C63.4354 64.6111 63.5331 64.9328 63.6651 65.2405L65.7901 71.1301L67.7087 66.2119C67.9758 65.4987 68.5344 64.5397 67.4172 64.0233H70.1858L66.0572 73.8966C65.5364 73.692 65.0733 73.3606 64.709 72.9317C64.3448 72.5028 64.0905 71.9896 63.9687 71.4375L62.1958 66.6299L59.3665 73.8966C58.8236 73.7058 58.3362 73.381 57.9482 72.9517C57.5603 72.5224 57.284 72.002 57.1444 71.4375L54.8858 65.5479C54.7163 64.9092 54.3292 64.3517 53.793 63.9741H54.3273C54.9774 64.0622 55.6385 63.9464 56.2215 63.6421Z" fill="#0C0D0D"/>
<path d="M71.7401 61.2812C71.7589 60.9375 71.9112 60.6154 72.1637 60.3851C72.4162 60.1547 72.7485 60.0348 73.088 60.0516C73.2527 60.0514 73.4157 60.0851 73.5671 60.1507C73.7185 60.2163 73.8552 60.3124 73.9688 60.4332C74.0824 60.554 74.1705 60.6969 74.2278 60.8532C74.2852 61.0095 74.3105 61.1761 74.3022 61.3426C74.3089 61.6789 74.1858 62.0045 73.959 62.2502C73.7322 62.4959 73.4197 62.6423 73.088 62.6583C72.9095 62.6599 72.7325 62.6254 72.5674 62.5566C72.4023 62.4878 72.2525 62.3863 72.1269 62.2579C72.0012 62.1295 71.9023 61.9769 71.8358 61.8092C71.7694 61.6414 71.7368 61.4619 71.7401 61.2812ZM74.0715 63.5804V71.2037C74.0715 72.1628 73.9501 72.9374 74.8487 73.4538V73.5153H71.4365V73.4538C72.3351 72.9251 72.2137 72.2242 72.2137 71.2037V66.2117C72.2137 65.2526 72.3351 64.5026 71.4365 63.9739H72.6508C73.1566 64.0314 73.665 63.8906 74.0715 63.5804Z" fill="#0C0D0D"/>
<path d="M79.0985 59.437H79.1593V71.1916C79.1593 72.1507 79.0135 72.9253 79.9243 73.4417V73.5032H76.5V73.454C77.3864 72.9253 77.265 72.2244 77.265 71.2039V62.0929C77.265 61.1338 77.3864 60.3592 76.5 59.8428V59.7813H77.7143C77.9558 59.8296 78.2049 59.8239 78.4441 59.7644C78.6832 59.7049 78.9066 59.5932 79.0985 59.437Z" fill="#0C0D0D"/>
<path d="M84.1744 59.437H84.2351V71.1916C84.2351 72.1507 84.0894 72.9253 84.9879 73.4417V73.5032H81.6001V73.454C82.4865 72.9253 82.3651 72.2244 82.3651 71.2039V62.0929C82.3651 61.1338 82.4865 60.3592 81.6001 59.8428V59.7813H82.8144C83.0522 59.8259 83.2967 59.8183 83.5313 59.7589C83.766 59.6995 83.9853 59.5897 84.1744 59.437Z" fill="#0C0D0D"/>
<path d="M8.57275 7.94299L26.2406 53.3014H28.3413L9.72633 5.52075H9.6899L8.57275 7.94299Z" fill="#0C0D0D"/>
<path d="M5.85254 13.8448L21.2254 53.3014H23.3261L7.00611 11.4226H6.96968L5.85254 13.8448Z" fill="#0C0D0D"/>
<path d="M78.0298 11.4226H77.9933L61.6733 53.3014H63.7741L79.1469 13.8448L78.0298 11.4226Z" fill="#0C0D0D"/>
<path d="M11.293 2.05334L31.268 53.3014H33.3565L12.4465 -0.368896H12.4101L11.293 2.05334Z" fill="#0C0D0D"/>
<path d="M75.3098 5.52075H75.2733L57.9455 49.9693L57.5205 51.0759L57.0955 49.9693L40.0105 6.14783H39.974L38.9419 8.79138L56.294 53.3014H58.759L76.4269 7.94299L75.3098 5.52075Z" fill="#0C0D0D"/>
<path d="M37.509 12.5784H37.4726L36.4404 15.2219L51.279 53.3014H53.3797L37.509 12.5784Z" fill="#0C0D0D"/>
<path d="M40.011 31.8826H39.9745L33.9517 47.3381L34.9838 49.9817H35.0202L41.0431 34.5261L40.011 31.8826Z" fill="#0C0D0D"/>
<path d="M37.5095 25.4519H37.473L31.4502 40.8952L32.4702 43.5387H32.5066L38.5295 28.0955L37.5095 25.4519Z" fill="#0C0D0D"/>
<path d="M34.9958 19.009H34.9594L28.9365 34.4646L29.9687 37.1081H30.0051L36.028 21.6649L34.9958 19.009Z" fill="#0C0D0D"/>
<path d="M72.5534 -0.368896L57.9456 37.1081L57.5206 38.2024L57.0956 37.1081L42.5241 -0.282827H42.4877L41.4556 2.36073L57.5084 43.5387H57.5449L73.7191 2.05334L72.602 -0.368896H72.5534Z" fill="#0C0D0D"/>
</g>
<defs>
<clipPath id="clip0">
<rect width="85" height="73.7736" fill="white"/>
</clipPath>
</defs>
</svg>
